<svg width="426" height="425" viewBox="0 0 426 425" fill="none" xmlns="http://www.w3.org/2000/svg">
    <g clip-path="url(#clip0_168_31)">
        <path fill-rule="evenodd" clip-rule="evenodd" d="M371.96 207.444C372.159 207.557 372.358 207.669 372.557 207.782C372.935 207.995 373.313 208.21 373.69 208.424C373.114 208.097 372.537 207.77 371.96 207.444ZM287.562 274.32C287.562 274.312 287.562 274.305 287.562 274.298L287.562 274.32Z" fill="white"/>
        <path d="M175.205 152.169C174.362 152.381 173.52 152.592 172.677 152.802V154.066H170.148V155.33L168.844 155.646C166.133 157.03 164.336 159.198 162.563 161.651V162.915H161.298C156.494 171.269 155.478 178.281 155.586 187.789L155.601 189.872C155.618 192.123 155.641 194.375 155.664 196.627C155.677 198.199 155.691 199.771 155.704 201.343C155.733 204.628 155.764 207.912 155.797 211.196C155.831 214.57 155.861 217.943 155.889 221.316C155.922 225.397 155.959 229.478 155.997 233.559C156.012 235.113 156.026 236.667 156.038 238.221C156.056 240.387 156.078 242.553 156.102 244.72L156.116 246.668L156.137 248.456L156.152 250.006C156.241 251.391 156.51 252.598 156.874 253.933C156.956 254.867 157.014 255.804 157.051 256.741L157.123 258.332L157.256 261.631L157.328 263.219L157.386 264.665C157.469 266.072 157.469 266.072 158.138 267.839C158.319 269.668 158.442 271.498 158.567 273.331L158.592 273.708C158.666 275.401 158.666 275.401 159.402 276.688C159.584 278.347 159.704 280.007 159.825 281.671L159.856 282.103C159.869 283.606 159.869 283.606 160.666 284.273C160.994 285.865 161.294 287.453 161.575 289.053C162.208 292.555 162.896 296.005 163.827 299.443H165.091L164.973 301.102C165.11 303.579 165.848 304.834 166.987 307.028C167.684 309.117 168.293 311.227 168.884 313.348H170.148L170.346 314.929C170.854 317.516 171.705 319.748 172.677 322.197H173.941V320.933H175.205L175.553 319.706C176.3 317.135 177.038 314.634 178.168 312.203C178.964 310.27 179.185 309.084 178.998 307.028H180.262L180.61 305.801C181.357 303.229 182.095 300.729 183.225 298.297C184.021 296.364 184.242 295.178 184.055 293.122H185.319L185.667 291.757C186.583 288.267 187.667 285.056 189.112 281.745C189.612 280.165 190.074 278.576 190.534 276.984C190.953 275.603 191.428 274.277 191.956 272.935C192.932 270.413 193.613 267.838 194.303 265.227L194.324 265.145C194.764 263.547 195.256 261.982 195.788 260.412L196.258 259.025L196.697 257.726C197.706 254.647 198.094 252.12 197.961 248.877H199.226L199.423 247.02C199.688 245.099 200.19 243.393 200.845 241.568C201.649 239.29 201.942 237.41 201.754 234.971H203.018L203.278 233.815C203.678 232.041 204.079 230.267 204.48 228.492L204.889 226.675L205.302 224.848L205.705 223.054C205.997 221.83 206.314 220.611 206.671 219.404C208.256 213.928 208.342 208.674 208.305 203.034C208.304 202.046 208.305 201.059 208.306 200.071C208.306 198.017 208.299 195.963 208.288 193.908C208.273 191.28 208.273 188.652 208.277 186.024C208.279 183.991 208.275 181.958 208.269 179.925C208.267 178.956 208.266 177.986 208.267 177.017C208.267 175.665 208.259 174.313 208.249 172.961L208.24 170.636C208.078 168.644 207.663 167.237 206.811 165.443H205.547L205.27 163.981C204.938 162.231 204.938 162.231 204.282 160.386H203.018V159.122H201.754V157.858H200.49V156.594H199.226V155.33H197.961V154.066C196.009 152.95 195.285 152.802 192.904 152.802V151.537C186.817 150.619 181.172 150.551 175.205 152.169Z" fill="white"/>
        <path d="M229.567 154.066V155.33L228.138 155.787C226.142 156.717 225.313 157.652 223.997 159.399L222.839 160.898C221.816 162.28 221.816 162.28 221.982 164.179H220.718C218.835 168.465 217.988 172.21 218.075 176.885L218.09 178.365C218.164 183.912 218.393 189.454 218.66 194.994C218.743 196.747 218.818 198.499 218.893 200.252C218.946 201.389 218.999 202.526 219.053 203.664L219.117 205.216C219.156 211.341 219.156 211.341 221.35 216.641C221.634 217.993 221.892 219.351 222.14 220.71C222.952 224.995 224.045 229.159 225.244 233.351C226.039 236.142 226.763 238.931 227.394 241.766C228.583 247.084 230.043 252.336 231.819 257.489C232.768 260.244 233.437 263.048 234.091 265.886C234.602 267.76 235.257 269.535 235.954 271.346C237.495 275.562 238.765 279.88 240.113 284.161C241.292 287.87 242.513 291.468 244.106 295.018C244.541 296.875 244.541 296.875 244.738 298.179H246.002V301.971H247.267L247.148 303.275C247.271 305.204 247.814 306.539 248.622 308.277C249.243 309.746 249.676 311.222 250.111 312.756C250.822 315.219 251.711 317.416 252.956 319.669L253.588 317.141H254.852L255.593 315.151L256.59 312.479L257.11 311.081C258.068 308.519 259.073 305.989 260.146 303.472C261.072 301.208 261.434 299.391 261.173 296.914H262.437C265.197 286.294 265.197 286.294 266.707 275.444C266.862 274.16 266.862 274.16 267.494 272.896C267.625 271.436 267.726 269.974 267.81 268.511C268.057 264.255 268.057 264.255 268.759 262.15C268.853 260.428 268.913 258.718 268.946 256.994L268.984 255.398C269.025 253.646 269.061 251.895 269.097 250.143L269.127 248.79C269.144 248.011 269.162 247.232 269.179 246.453C269.237 243.86 269.292 241.267 269.346 238.675C269.415 235.406 269.487 232.137 269.561 228.869C269.943 211.986 269.943 211.986 270.092 195.101L270.098 193.099C270.321 180.18 270.321 180.181 266.862 167.971C266.626 167.135 266.4 166.295 266.23 165.443H264.966L263.702 161.651H262.437V160.386H261.173V159.122H259.909V157.858H258.645V156.594H257.38V155.33C252.531 151.826 248.263 151.157 242.407 151.142L240.543 151.123C236.375 151.202 233.228 152.078 229.567 154.066Z" fill="white"/>
        <path d="M199.226 97.179V98.4431H196.697V99.7073H194.169V100.971L192.983 101.248C191.619 101.56 191.619 101.56 190.376 102.236V103.5L189.072 103.816C186.361 105.2 184.563 107.368 182.79 109.82V111.085H181.526V112.349H180.262V114.877H178.998C178.57 115.664 178.15 116.455 177.733 117.247L177.022 118.581C176.31 120.08 176.31 120.08 176.469 122.462H175.205V126.254H173.941C172.811 130.563 172.527 134.449 172.677 138.896L173.692 138.585C175.554 138.19 177.286 138.182 179.19 138.18L181.534 138.177L183.976 138.185L186.403 138.177L188.751 138.18L190.889 138.182C192.875 138.263 194.746 138.525 196.697 138.896V140.16C198.534 140.954 199.729 141.424 201.754 141.424V142.688C204.051 144.561 204.051 144.561 206.811 145.217V146.481H208.075V147.745H209.339L210.604 151.537H211.868V152.802C213.795 153.441 213.795 153.441 215.661 152.802C216.12 151.551 216.544 150.286 216.925 149.009H218.189C219.559 147.85 219.559 147.85 220.718 146.481V145.217H221.982V143.952L223.167 143.676C224.531 143.364 224.531 143.364 225.774 142.688V141.424H228.303V140.16L229.528 139.923C230.569 139.71 231.61 139.49 232.64 139.227C236.581 138.248 240.413 137.997 244.461 137.869L246.394 137.795C247.949 137.736 249.504 137.682 251.059 137.632V138.896L253.588 138.264C253.615 136.789 253.614 135.314 253.588 133.839L252.956 133.207L252.719 130.955C252.449 128.532 251.78 126.504 250.869 124.252C250.329 122.837 250.028 121.428 249.795 119.934H248.531V117.405H247.267V114.877H246.002L245.726 113.692C245.413 112.328 245.413 112.328 244.738 111.085H243.474V109.82H242.21V108.556H240.945V107.292H239.681V106.028H238.417V104.764H237.153V103.5C235.373 102.06 235.373 102.06 233.36 102.236V100.971C226.448 97.25 220.219 95.503 212.342 95.6778L210.199 95.6803C206.332 95.7213 202.927 96.0506 199.226 97.179Z" fill="white"/>
        <path d="M168.884 61.7828C167.768 63.7347 167.62 64.4585 167.62 66.8394H168.884V68.1036L170.111 68.1752C173.715 68.4491 176.37 69.102 179.63 70.6319H181.526V71.896C183.193 73.4118 183.193 73.4118 185.319 73.7922L186.583 76.9526H187.847L189.112 82.0092H190.376L190.297 84.2215C190.287 87.0309 190.87 89.428 191.64 92.1224H199.226C199.546 86.1 198.992 81.2824 196.697 75.6884H195.433L195.156 74.5033C194.844 73.1396 194.844 73.1396 194.169 71.896H192.904L192.43 70.7109C191.51 69.146 190.769 68.7664 189.112 68.1036V66.8394H187.847V65.5753C187.071 65.1785 186.294 64.7839 185.516 64.3901L184.205 63.7235L182.79 63.047L181.388 62.3359C178.925 61.5611 176.623 61.6479 174.059 61.7038L172.549 61.7211C171.327 61.7359 170.106 61.7586 168.884 61.7828Z" fill="white"/>
        <path d="M246.002 61.7828V63.047L244.343 63.2445C242.104 63.7005 240.412 64.4825 238.417 65.5753V66.8394H237.153V68.1036H235.888V69.3677H234.624V70.6319H233.36V71.896H232.096C228.24 79.1706 226.852 83.8956 227.039 92.1224H234.624L234.972 90.0434C235.132 89.1298 235.293 88.2163 235.454 87.3028L235.68 85.9374C236.193 83.0668 237.026 80.811 238.417 78.2167V76.9526H239.681C240.635 75.9879 240.635 75.9879 241.577 74.7798C243.345 72.5924 243.345 72.5924 244.738 71.896V70.6319L249.795 69.3677V68.1036L251.454 68.1826C253.666 68.1007 255.323 67.6231 257.38 66.8394V61.7828C254.151 60.1682 249.465 61.2882 246.002 61.7828Z" fill="white"/>
        <path d="M288.986 64.3111V65.5753H287.722V66.8394H286.458V68.1036H285.194V69.3677H283.929V70.6319H282.665V71.896L281.203 72.4096C279.474 73.1738 278.714 73.5508 277.608 75.0564C277.332 77.0102 277.332 77.0102 277.393 79.2752L277.392 80.5651C277.393 81.9709 277.408 83.3762 277.423 84.7819C277.427 85.757 277.429 86.7321 277.431 87.7072C277.438 90.2729 277.457 92.8384 277.478 95.404C277.496 97.8149 277.505 100.226 277.513 102.637L277.516 103.259C277.536 108.396 277.568 113.533 277.608 118.67H276.344V119.934H275.08V121.198H273.815V122.462H272.551C270.679 124.758 270.679 124.758 270.023 127.519H268.759C267.319 129.298 267.319 129.298 267.494 131.311H266.23C264.039 135.501 262.206 139.102 262.437 143.952H263.702V145.217C265.147 145.535 265.147 145.535 266.862 145.217C268.169 144.072 268.984 142.907 269.992 141.468L270.023 141.424V140.16H271.287V138.896H272.551V137.632H273.815C274.819 136.548 274.819 136.548 275.791 135.182L276.823 133.805C277.722 132.641 277.722 132.641 277.608 131.311H278.872V130.047H280.137V128.783H281.401V127.519H282.665V126.254H283.929V124.99H285.194V123.726H286.458V122.462H287.722V80.745H288.986V79.4809H290.251V78.2167H291.515V76.9526H292.779V75.6884H294.043V74.4243H295.308V73.1601H296.572V71.896H297.836V70.6319H299.1V69.3677H300.364V68.1036H301.629C302.268 66.1763 302.268 66.1763 301.629 64.3111H300.364V63.047H299.1V61.7828H297.836V60.5187C293.994 59.9424 291.637 61.7146 288.986 64.3111Z" fill="white"/>
        <path d="M127.164 61.7828V63.047H125.9V64.3111H124.636V65.5753L123.371 66.2073L124.636 68.1036H125.9V69.3677H127.164V70.6319H128.428V71.896H129.692V73.1601H130.957V74.4243H132.221V75.6884H133.485V76.9526H134.749V78.2167H136.014V79.4809H137.278L137.264 81.0178C137.224 85.825 137.212 90.631 137.23 95.4383C137.239 97.9092 137.237 100.379 137.211 102.85C137.186 105.24 137.189 107.628 137.211 110.018C137.214 110.924 137.208 111.831 137.191 112.737C137.091 118.618 137.977 122.276 142.132 126.666L143.599 128.151L144.969 129.922L146.128 131.311H147.392V132.575H148.656V133.839H149.92V135.103H151.185L151.738 136.565C152.425 138.359 152.425 138.359 153.713 140.16H154.977V141.424H156.241L157.506 143.952H158.77V145.217H162.563V143.952H163.827C163.961 141.128 163.569 139.008 162.563 136.368H161.298V133.839H160.034V131.311H158.77L157.506 127.519H156.241V126.254H154.977L154.486 125.123C153.652 123.616 152.734 122.772 151.476 121.615L151.454 121.595C148.316 118.061 148.69 114.305 148.762 109.781C148.759 108.922 148.755 108.062 148.748 107.203C148.735 104.952 148.747 102.702 148.765 100.451C148.789 97.0643 148.777 93.6779 148.765 90.2915L148.763 89.6464C148.762 88.3973 148.772 87.1481 148.782 85.899C148.791 81.8634 148.729 78.2552 147.392 74.4243C146.146 73.4289 146.146 73.4289 144.863 73.1601V71.896H143.599V70.6319H142.335V69.3677C141.251 68.3638 141.251 68.3638 139.885 67.3925L138.508 66.3604C137.343 65.4619 137.343 65.4619 136.014 65.5753V64.3111H134.749V63.047C132.09 60.5357 130.452 59.5907 127.164 61.7828Z" fill="white"/>
        <path d="M8.95786 124.99C9.16693 134.44 10.3881 143.514 12.1185 152.802H13.3827L13.2642 154.367C13.4124 157.152 14.2484 159.32 15.279 161.888L15.8272 163.297C16.2709 164.436 16.7224 165.572 17.1754 166.707H18.4396L18.6372 168.011C19.1648 170.265 20.0166 172.182 20.9681 174.292H22.2323V176.82H23.4966L23.7731 178.005C24.0854 179.369 24.0854 179.369 24.7608 180.613H26.0251V183.141H27.2893V184.405H28.5535L28.8301 185.59C29.1424 186.954 29.1424 186.954 29.8178 188.198H31.082L31.6351 189.659C32.3227 191.453 32.3227 191.453 33.6105 193.254H34.8747V194.518H36.139V195.783H37.4032V197.047H38.6674V198.311H39.9317V199.575H41.1959V200.839C44.0708 200.952 46.1766 200.838 48.7813 199.575V198.311L49.8777 198.057C51.2949 197.683 52.6283 197.216 53.9963 196.691L55.3494 196.175L56.3667 195.783V194.518H58.8952V193.254L64.5843 193.886C64.6405 195.908 64.5278 197.633 63.9522 199.575H62.6879V200.839L58.8952 202.103V203.367L55.1025 204.632V205.896L53.8778 206.409C52.3646 207.088 52.3646 207.088 51.9419 209.056L53.8383 209.688V210.952H55.1025V212.217L57.1964 213.481L58.3742 214.192C59.5992 214.881 59.5992 214.881 61.4237 214.745V216.009H63.9522V217.273C65.3729 218.001 66.7953 218.724 68.219 219.446L69.4338 220.069C71.3692 221.047 73.185 221.945 75.3303 222.33V223.594C76.6328 224.111 77.9368 224.623 79.2415 225.135L81.4416 226.001C83.2136 226.635 84.857 227.083 86.7084 227.386V228.65C88.3396 229.288 89.9726 229.919 91.6073 230.547L93.0049 231.095L94.363 231.613L95.6069 232.095C97.0167 232.559 97.0167 232.559 99.3508 232.443V233.707C101.947 234.966 104.061 235.242 106.936 234.971C108.376 233.192 108.376 233.192 108.2 231.179H109.465C110.904 229.399 110.904 229.399 110.729 227.386H111.993V226.122H113.257L114.522 222.33H115.786V221.066H117.05C118.923 218.769 118.923 218.769 119.579 216.009H120.843V214.745H122.107V213.481H123.371V212.217H124.636V210.952H125.9C126.756 209.909 127.598 208.856 128.428 207.792L129.692 207.16V205.896H130.957V204.632H132.221V203.367H133.485V202.103H134.749V200.839H136.014V199.575L137.199 199.298C138.563 198.986 138.563 198.986 139.806 198.311V197.047L140.992 196.77C142.355 196.458 142.355 196.458 143.599 195.783V180.613H141.071V181.877H138.542V183.141L134.749 184.405V185.669L130.957 186.934V188.198L129.574 188.672C127.622 189.539 126.209 190.551 124.636 191.99V193.254H123.371V194.518L121.989 194.992C120.036 195.86 118.624 196.872 117.05 198.311V199.575H115.786V200.839H114.522V202.103H113.257V203.367H111.993V204.632H110.729V205.896H109.465V207.16H108.2V208.424H106.936V209.688H105.672C103.799 211.985 103.799 211.985 103.144 214.745H101.879L100.615 216.641C98.0962 217 96.4194 216.319 94.1753 215.219C91.822 214.103 89.472 213.013 87.064 212.019L85.5652 211.394C84.0208 210.824 84.0208 210.824 81.6515 210.952V209.688C80.6529 209.261 79.6515 208.841 78.6489 208.424L76.96 207.713C75.2181 207.024 75.2181 207.024 72.8018 207.16V205.896L70.6684 205.066C68.377 204 68.377 204 67.1128 202.103C68.0061 201.586 68.9021 201.073 69.7993 200.563L71.3104 199.696C72.668 199.011 73.8461 198.607 75.3303 198.311V197.047H77.8588V195.783L79.0835 195.585C81.6323 195.013 84.0691 194.169 86.5339 193.315L86.7084 193.254V191.99H89.2369V190.726L94.1753 189.738L95.5581 189.462V188.198L96.7902 187.983C99.2891 187.442 101.718 186.715 104.166 185.983L104.289 185.946L105.799 185.498C107.021 185.135 108.243 184.77 109.465 184.405V183.141L111.045 183.26C113.232 183.142 114.788 182.606 116.798 181.786C119.311 180.89 121.915 180.4 124.517 179.828C126.734 179.301 128.844 178.606 130.991 177.85C132.641 177.317 134.297 177.04 136.014 176.82V175.556H142.335V174.292H144.863V170.5H146.128V169.235C143.26 167.799 140.762 167.801 137.633 167.853L136.22 167.854C133.549 167.875 131.064 168.144 128.428 168.603C126.234 168.785 124.034 168.88 121.835 168.986C119.362 169.078 119.362 169.078 117.05 169.868C115.391 170.049 113.731 170.17 112.067 170.29L111.635 170.322C110.131 170.334 110.131 170.334 109.465 171.132C107.999 171.335 106.533 171.455 105.06 171.586C103.781 171.631 103.781 171.631 103.144 172.396C101.843 172.598 100.542 172.719 99.2323 172.85C98.076 172.914 98.076 172.914 97.4544 173.66L95.5186 173.897C93.2079 174.264 91.3784 174.856 89.2246 175.702C84.4237 177.567 81.8259 177.391 77.1081 175.635C72.3927 174.025 67.591 173.353 62.6848 172.598C56.1526 171.55 56.1526 171.55 55.1025 170.5C54.1063 170.28 53.1041 170.087 52.0999 169.907C49.7927 169.471 47.7996 168.843 45.6207 167.971C43.9084 167.865 43.9084 167.865 42.4601 167.971V166.707H39.9317V165.443H37.4032V164.179H36.139V162.915C35.1742 161.961 35.1742 161.961 33.966 161.018C31.7784 159.251 31.7784 159.251 31.082 157.858H29.8178L29.2647 156.12C28.7019 154.494 28.1016 153.046 27.2893 151.537H26.0251L25.788 149.878C25.4049 147.809 24.8129 145.938 24.1287 143.952C27.5818 144.027 31.0349 144.106 34.4878 144.188C35.6619 144.215 36.836 144.241 38.0102 144.267C39.7001 144.303 41.39 144.344 43.0799 144.385L44.6646 144.417C47.1712 144.481 49.4886 144.653 51.9419 145.217C53.9928 145.373 56.0425 145.494 58.0964 145.599C61.294 145.784 61.294 145.784 62.6879 146.481C63.8189 146.58 64.952 146.655 66.0856 146.718C69.4386 146.972 72.473 147.615 75.7106 148.491C78.3068 149.117 80.9109 149.542 83.5478 149.957C87.3675 150.562 91.0638 151.328 94.8025 152.327C97.381 152.933 99.9749 153.339 102.59 153.75C106.248 154.324 109.719 155.037 113.243 156.204C114.663 156.674 114.663 156.674 116.774 156.91C118.542 157.167 119.892 157.51 121.554 158.095C123.925 158.929 126.29 159.527 128.744 160.07C131.125 160.6 133.434 161.164 135.737 161.967C137.98 162.748 140.236 163.411 142.532 164.021L144.421 164.525C146.107 164.808 147.062 164.739 148.656 164.179V161.651H149.92V159.122H151.185L152.449 155.33H153.713L154.345 152.802H151.185V151.537L149.409 151.145L147.115 150.629L144.826 150.118C142.967 149.641 142.967 149.641 142.335 149.009C141.071 148.983 139.806 148.982 138.542 149.009V147.745C135.938 146.928 133.695 146.315 130.957 146.481V145.217L129.315 144.868C123.213 143.527 123.213 143.527 120.566 142.372C117.646 141.143 114.695 140.629 111.596 140.009C109.85 139.615 108.339 139.153 106.699 138.461C104.017 137.49 102.174 137.48 99.3508 137.632V136.368L97.1779 136.091C94.926 135.736 94.926 135.736 94.2939 135.103C93.4545 134.973 92.6105 134.872 91.7654 134.787C89.3071 134.542 89.3071 134.542 88.6048 133.839C86.9599 133.525 85.3187 133.239 83.6664 132.97C80.366 132.417 77.1393 131.801 73.908 130.916C70.536 130.021 67.2505 129.725 63.7719 129.548C62.0558 129.415 62.0558 129.415 60.1595 128.783C58.3301 128.602 56.5003 128.478 54.6669 128.354L54.2901 128.328C52.574 128.151 52.574 128.151 51.3098 127.519C50.4711 127.431 49.6288 127.376 48.7863 127.341L47.2776 127.269L45.6997 127.203C44.6741 127.159 43.6485 127.113 42.6231 127.064L41.2431 127.006C39.9317 126.886 39.9317 126.886 38.6937 126.57C37.2048 126.206 35.8236 126.131 34.292 126.077L32.4845 126.005L30.6079 125.938C23.7537 125.691 23.7537 125.691 20.8397 125.289C18.3017 124.973 15.9393 124.928 13.3827 124.951L12.0814 124.959C11.0402 124.967 9.99902 124.978 8.95786 124.99Z" fill="white"/>
        <path d="M141.071 221.066V222.33H139.806C138.557 223.661 138.557 223.661 137.278 225.332L135.935 227.021C134.943 228.384 134.172 229.648 133.485 231.179H132.221V232.443H130.957V233.707H129.692V234.971H128.428V236.235H127.164V237.499H125.9C125.885 252.24 125.874 266.981 125.867 281.722C125.864 288.566 125.859 295.41 125.852 302.254C125.846 308.217 125.842 314.18 125.84 320.143C125.839 323.302 125.838 326.461 125.833 329.621C125.829 332.591 125.827 335.561 125.828 338.531C125.828 339.624 125.827 340.718 125.824 341.811C125.821 343.297 125.822 344.783 125.824 346.27L125.822 348.796C125.688 350.572 125.688 350.572 126.532 351.273C128.131 351.319 129.713 351.331 131.312 351.312L132.674 351.304C133.787 351.296 134.9 351.285 136.014 351.273L136.022 350.188C136.088 341.299 136.157 332.411 136.228 323.522C136.262 319.223 136.296 314.923 136.328 310.624C136.494 288.352 136.777 266.087 137.278 243.82H138.542V242.556L142.335 241.292V240.028H143.599V238.764H144.863V219.169C143.443 219.169 142.203 220.311 141.071 221.066Z" fill="white"/>
        <path d="M205.547 270.367V271.632H204.282C204.054 272.565 203.831 273.501 203.611 274.436L203.233 276.014L203.018 277.32C203.722 278.167 203.722 278.167 205.521 278.024L207.999 278.014L209.314 278.011C210.705 278.008 212.096 278 213.488 277.992C214.429 277.989 215.37 277.986 216.311 277.983C218.623 277.976 220.934 277.965 223.246 277.952C223.312 275.504 223.006 273.871 221.982 271.632H220.718V270.367H219.453V269.103C214.614 268.981 210.185 268.883 205.547 270.367Z" fill="white"/>
        <path d="M192.272 300.707C190.771 303.996 189.716 307.249 188.796 310.741C187.156 316.821 187.156 316.821 186.149 319.709C184.779 323.684 183.369 328.118 184.055 332.311C186.294 335.703 189.567 338.835 192.904 341.16H194.169V342.424H195.433V343.688H196.697V344.952H197.961V346.216C199.045 347.22 199.045 347.22 200.411 348.192L201.789 349.224C202.953 350.122 202.953 350.122 204.282 350.009V351.273H205.547V352.537C207.326 353.976 207.326 353.976 209.339 353.801V355.065H210.604V356.329L213.132 357.594V356.329H214.396V355.065L218.189 353.801V352.537H219.453V351.273H220.718V350.009L222.179 349.456C223.973 348.768 223.973 348.768 225.774 347.48V346.216H227.039V344.952H228.303V343.688H229.567V342.424L230.678 341.923C232.677 340.847 234.193 339.385 235.866 337.866C236.981 336.886 238.117 336.051 239.326 335.194C241.01 333.51 241.596 332.476 241.731 330.089C241.457 327.286 240.588 324.665 239.753 321.985C239.085 319.789 238.552 317.605 238.061 315.363C237.423 312.495 236.63 309.762 235.654 306.993C235.12 305.344 234.844 303.688 234.624 301.971H233.36V300.707C232.214 300.901 231.068 301.1 229.923 301.3L227.989 301.633C226.452 301.811 226.452 301.811 225.774 302.603C224.632 302.735 223.485 302.836 222.337 302.919C219.855 303.055 219.855 303.055 217.557 303.867C216.399 303.928 215.239 303.949 214.08 303.946L212.204 303.951C210.604 303.867 210.604 303.867 209.339 303.235C208.183 303.12 207.023 303.032 205.863 302.959C202.303 302.69 198.913 302.111 195.433 301.339C194.38 301.126 193.326 300.915 192.272 300.707Z" fill="white"/>
        <path d="M280.137 219.801C280.074 222.557 280.028 225.313 279.998 228.069C279.985 229.006 279.968 229.944 279.946 230.881C279.915 232.229 279.901 233.576 279.89 234.924L279.85 237.382C279.94 239.437 279.94 239.437 281.337 240.623C282.606 241.387 282.606 241.387 283.929 241.292V242.556L285.484 243.315C287.09 244.452 287.09 244.452 287.489 246.354L287.494 248.736L287.51 250.062C287.524 251.533 287.515 253.003 287.507 254.473C287.509 254.939 287.512 255.404 287.515 255.869L287.516 256.088C287.519 256.602 287.523 257.117 287.527 257.631C287.545 260.493 287.543 263.354 287.538 266.215C287.536 268.748 287.548 271.28 287.559 273.813L287.562 274.298L287.562 274.32L287.566 275.181C287.59 280.842 287.597 286.504 287.599 292.165C287.602 298.609 287.623 305.054 287.645 311.498C287.691 324.757 287.713 338.015 287.722 351.273H297.836C298.327 348.329 298.55 345.866 298.557 342.918L298.563 341.57C298.568 340.087 298.569 338.603 298.57 337.12C298.573 336.054 298.576 334.987 298.58 333.921C298.588 331.029 298.592 328.138 298.595 325.247C298.597 323.44 298.599 321.634 298.602 319.827C298.611 314.174 298.617 308.521 298.619 302.868C298.622 296.343 298.633 289.818 298.651 283.293C298.665 278.247 298.671 273.201 298.672 268.155C298.673 265.142 298.677 262.129 298.688 259.116C298.698 256.284 298.7 253.452 298.694 250.619C298.694 249.58 298.696 248.541 298.703 247.501C298.711 246.083 298.707 244.664 298.7 243.245L298.703 240.84C298.311 237.378 296.313 235.005 294.043 232.443H292.779V231.179H291.515V229.915H290.251V228.65H288.986V227.386H287.722L287.248 226.29C286.336 224.637 285.268 223.5 283.929 222.172L282.586 220.819C281.501 219.664 281.501 219.664 280.137 219.801Z" fill="white"/>
        <path d="M406.447 125.289C402.442 125.842 398.409 125.873 394.371 126.005C391.205 126.12 388.191 126.335 385.068 126.886C382.602 127.072 380.131 127.164 377.661 127.269C374.957 127.328 374.957 127.328 372.426 128.151C371.177 128.28 369.925 128.382 368.673 128.467C366.591 128.608 364.928 128.754 362.944 129.415C361.258 129.595 359.572 129.72 357.881 129.846L357.569 129.869C355.993 129.955 355.993 129.955 354.727 130.679C353.384 130.859 352.04 130.981 350.692 131.103L350.691 131.103L350.361 131.133C349.003 131.243 349.003 131.243 347.773 131.943C346.933 132.041 346.089 132.117 345.245 132.18C343.024 132.401 341.047 132.84 338.924 133.523C336.881 134.18 335.017 134.609 332.879 134.787C330.315 135.005 328.117 135.69 325.704 136.558C324.024 137.121 322.347 137.407 320.592 137.632V138.896L318.38 138.777C315.983 138.777 314.173 139.319 311.95 140.251C310.129 140.92 308.303 141.324 306.409 141.74C303.544 142.373 300.817 143.128 298.053 144.103C295.08 145.069 292.026 145.756 288.986 146.481V147.745L287.05 147.666C284.447 147.749 282.59 148.208 280.137 149.009V150.273L278.477 150.194C276.231 150.277 274.604 150.63 272.551 151.537C271.673 153.433 271.673 153.433 272.749 155.132L273.815 156.594H275.08V159.122H276.344L276.542 160.268C277.068 161.942 277.38 162.602 278.872 163.547C281.367 163.447 283.531 162.859 285.863 162.031C289.159 160.917 292.502 160.169 295.9 159.438C299.924 158.569 303.868 157.619 307.792 156.364C309.939 155.757 312.052 155.535 314.271 155.33V154.066L316.325 154.184C319.192 154.184 321.706 153.502 324.449 152.758L324.607 152.715C327.967 151.92 331.366 151.429 334.781 150.936L334.783 150.936L334.982 150.907C337.474 150.753 337.474 150.753 339.556 149.641C340.619 149.494 341.687 149.38 342.756 149.286L344.516 149.125L345.877 149.009V147.745L347.215 147.767L348.959 147.784L350.692 147.807C352.209 147.848 352.209 147.848 353.462 147.113C355.093 146.932 356.724 146.812 358.36 146.692L358.816 146.659C360.41 146.575 360.41 146.575 361.68 145.849C363.837 145.681 365.989 145.568 368.149 145.466C370.686 145.383 370.686 145.383 373.058 144.585C373.936 144.51 374.816 144.473 375.697 144.455L377.345 144.417L379.127 144.385L380.95 144.345C382.876 144.303 384.802 144.266 386.728 144.229C388.031 144.202 389.335 144.174 390.639 144.146C393.839 144.079 397.039 144.015 400.239 143.952C399.948 145.17 399.654 146.386 399.358 147.602L398.862 149.654C398.296 151.706 397.474 153.471 396.446 155.33V156.594H395.182L393.918 160.386H392.654V161.651H391.39V162.915H390.125V164.179L386.333 165.443V166.707H383.804V167.971H381.276V169.235L379.774 169.117C377.24 169.248 375.196 169.865 372.791 170.628C369.473 171.654 366.166 172.359 362.707 172.672C359.301 173.005 356.111 173.987 352.83 174.924C346.704 176.674 340.844 176.955 334.811 174.812C331.932 173.863 328.965 173.273 326.005 172.633C324.767 172.363 323.53 172.091 322.294 171.818L320.658 171.463C319.328 171.132 319.328 171.132 318.064 170.5C317.013 170.372 315.958 170.269 314.903 170.184C311.883 169.938 311.883 169.938 310.478 169.235C309.124 169.106 307.767 169.004 306.409 168.919C304.224 168.783 302.444 168.664 300.364 167.971C298.821 167.918 297.297 167.898 295.754 167.91L294.402 167.912C292.979 167.916 291.555 167.924 290.132 167.932C289.166 167.935 288.2 167.938 287.234 167.94C284.868 167.947 282.503 167.958 280.137 167.971C279.601 170.596 279.601 170.596 279.821 173.225C281.314 174.905 283.036 174.728 285.194 174.924L285.826 175.556C287.139 175.826 288.457 176.071 289.776 176.307C294.002 177.106 298.126 178.17 302.261 179.349L303.953 179.826C306.388 180.531 308.737 181.27 311.054 182.304C313.135 183.196 314.561 183.305 316.8 183.141V184.405H320.592V185.669L321.953 186.062L323.713 186.578L325.469 187.089C326.913 187.566 326.913 187.566 327.546 188.198C328.599 188.223 329.653 188.225 330.706 188.198V189.462C332.994 190.294 334.559 190.726 337.027 190.726V191.99L338.558 192.526C343.141 194.199 347.133 196.115 351.275 198.718C352.811 199.728 352.811 199.728 354.727 199.575V200.839L358.519 202.103V204.632H355.991V205.896L354.529 206.172C352.779 206.505 352.779 206.505 350.934 207.16V208.424L349.709 208.622C347.16 209.194 344.724 210.038 342.259 210.892L342.084 210.952V212.217L340.346 212.493C338.788 212.763 337.287 213.07 335.763 213.481V214.745L334.025 215.021C332.467 215.291 330.966 215.599 329.442 216.009V217.273H324.385L323.832 215.811C323.144 214.018 323.144 214.018 321.856 212.217H320.592V210.952H319.328V209.688H318.064L317.53 208.572C315 203.682 311.223 200.115 306.686 197.047H305.421V195.783H304.157V194.518H302.893V193.254C301.113 191.815 301.113 191.815 299.1 191.99V190.726H297.836V189.462L294.043 188.198V186.934L290.251 185.669V184.405C289.134 183.768 288.014 183.137 286.892 182.509L285.003 181.442C283.329 180.475 283.329 180.475 281.401 180.613V195.783H283.929V197.047C286.226 198.919 286.226 198.919 288.986 199.575V200.839H290.251V202.103H291.515V203.367H292.779V204.632C293.726 205.429 294.707 206.186 295.703 206.923C298.367 208.983 300.309 211.015 302.162 213.816L302.893 214.745H304.157V216.009H305.421V217.273H306.686V218.537H307.95L308.503 219.999C309.191 221.793 309.191 221.793 310.478 223.594H311.743L313.007 227.386H314.271V228.65H315.535L315.733 229.678C316.459 232.186 317.175 234.412 319.447 235.84L320.592 236.235V234.971L321.896 235.09C323.82 234.967 325.15 234.429 326.884 233.623C329.344 232.581 331.932 231.907 334.499 231.179V229.915L336.079 229.717C338.666 229.209 340.899 228.357 343.349 227.386V226.122L344.756 225.882C346.421 225.51 347.736 225.01 349.267 224.273L350.809 223.536L352.396 222.764L353.96 222.015C357.182 220.467 360.383 218.879 363.576 217.273V216.009L364.604 215.811C366.475 215.27 368.108 214.416 369.829 213.516L369.898 213.481V212.217L371.438 211.742L373.058 210.952C373.498 209.669 373.498 209.669 373.69 208.424C373.313 208.21 372.935 207.995 372.557 207.782L371.96 207.444C371.628 207.257 371.296 207.07 370.964 206.883L369.431 206.017C367.962 205.194 367.962 205.194 366.105 204.632V203.367L364.927 202.832C360.234 200.504 360.234 200.504 359.112 197.797L358.519 195.783H359.784L361.048 193.886C364.527 193.321 366.962 194.71 369.937 196.296L371.267 196.979C373.602 198.187 375.868 199.473 378.115 200.839C380.295 201.919 380.295 201.919 382.658 201.906C383.842 201.479 383.842 201.479 385.068 200.839V199.575H386.333V198.311H387.597C388.601 197.227 388.601 197.227 389.572 195.862L390.604 194.484C391.503 193.32 391.503 193.32 391.39 191.99H392.654V190.726H393.918V189.462H395.182C396.622 187.682 396.622 187.682 396.446 185.669H397.711C399.15 183.89 399.15 183.89 398.975 181.877H400.239C401.679 180.098 401.679 180.098 401.503 178.085H402.768C403.617 176.455 404.458 174.822 405.296 173.186L406.027 171.788L406.718 170.43L407.36 169.187C407.975 167.794 407.975 167.794 407.825 165.443H409.089L409.437 164.238C410.203 161.628 410.983 159.05 411.973 156.515C413.483 152.57 414.263 148.716 414.622 144.51C414.778 143.32 414.778 143.32 415.41 142.056C415.541 140.474 415.646 138.901 415.726 137.316C415.957 132.746 415.957 132.746 416.674 131.311C416.718 130.232 416.728 129.151 416.714 128.072L416.696 126.328L416.674 124.99C415.397 124.973 414.119 124.961 412.842 124.951L410.686 124.929C408.486 124.945 408.486 124.945 406.447 125.289Z" fill="white"/>
    </g>
    <defs>
        <clipPath id="clip0_168_31">
            <rect width="426" height="425" fill="white"/>
        </clipPath>
    </defs>
</svg>
