<svg width="34" height="34" viewBox="0 0 34 34" fill="none" xmlns="http://www.w3.org/2000/svg">
    <g clip-path="url(#clip0_85_5)">
        <path d="M17 0C7.61016 0 0 7.61016 0 17C0 26.3898 7.61016 34 17 34C26.3898 34 34 26.3898 34 17C34 7.61016 26.3898 0 17 0ZM26.9145 18.4145C26.9145 19.198 26.2836 19.8289 25.5 19.8289H19.8355V25.5C19.8355 26.2836 19.2047 26.9145 18.4211 26.9145H15.5855C14.802 26.9145 14.1711 26.277 14.1711 25.5V19.8355H8.5C7.71641 19.8355 7.08555 19.198 7.08555 18.4211V15.5855C7.08555 14.802 7.71641 14.1711 8.5 14.1711H14.1645V8.5C14.1645 7.71641 14.7953 7.08555 15.5789 7.08555H18.4145C19.198 7.08555 19.8289 7.72305 19.8289 8.5V14.1645H25.5C26.2836 14.1645 26.9145 14.802 26.9145 15.5789V18.4145Z" fill="#262534"/>
    </g>
    <defs>
        <clipPath id="clip0_85_5">
            <rect width="34" height="34" fill="white"/>
        </clipPath>
    </defs>
</svg>
